<?xml version="1.0" standalone="no"?>
<!DOCTYPE svg PUBLIC "-//W3C//DTD SVG 20010904//EN"
 "http://www.w3.org/TR/2001/REC-SVG-20010904/DTD/svg10.dtd">
<svg version="1.0" xmlns="http://www.w3.org/2000/svg"
 width="16.000000pt" height="16.000000pt" viewBox="0 0 16.000000 16.000000"
 preserveAspectRatio="xMidYMid meet">
<metadata>
Created by potrace 1.11, written by Peter Selinger 2001-2013
</metadata>
<g transform="translate(0.000000,16.000000) scale(0.006154,-0.006154)"
fill="#000000" stroke="none">
<path d="M0 2260 l0 -339 26 24 c53 49 130 42 179 -17 44 -53 25 -131 -39
-162 -54 -26 -104 -18 -146 24 l-20 20 0 -82 0 -83 105 3 105 3 0 -435 0 -436
-105 0 -105 0 0 -390 0 -390 1200 0 1200 0 0 376 c0 347 1 378 18 391 16 13
15 13 -6 11 l-23 -3 1 600 c0 330 0 603 0 608 0 4 7 7 15 7 18 0 20 16 2 23
-9 4 -8 8 3 16 10 7 11 11 3 11 -10 0 -13 63 -13 280 l0 280 -1200 0 -1200 0
0 -340z m2387 -252 c-3 -8 -6 -5 -6 6 -1 11 2 17 5 13 3 -3 4 -12 1 -19z
m-1229 -222 l2 -189 -56 -50 c-66 -60 -96 -104 -124 -186 -11 -33 -20 -63 -20
-66 0 -3 42 -5 94 -5 l94 0 7 33 c34 157 197 240 340 173 28 -13 60 -34 72
-47 27 -30 62 -106 63 -136 0 -22 3 -23 101 -23 84 0 100 2 96 14 -30 77 -13
145 45 183 34 23 54 28 128 31 52 3 102 0 123 -8 49 -16 87 -62 87 -106 0 -82
-30 -97 -251 -125 -176 -22 -252 -45 -304 -90 l-33 -29 -227 0 -228 0 6 -45
c25 -177 211 -262 397 -181 10 4 19 -3 29 -25 7 -17 31 -48 53 -68 l39 -38
-48 -20 c-127 -54 -295 -58 -413 -10 -36 15 -66 22 -68 17 -2 -6 -48 -10 -108
-10 l-104 0 0 46 0 46 -40 -36 c-74 -66 -185 -94 -311 -76 -184 26 -312 147
-350 330 -18 88 -7 264 21 330 54 127 126 195 244 231 98 31 219 24 308 -19
35 -16 75 -42 90 -56 15 -14 30 -26 33 -26 3 0 5 97 5 215 l0 216 103 -3 102
-3 3 -189z m1040 -665 c-4 -118 -16 -140 -98 -185 -46 -25 -66 -30 -130 -30
-133 0 -196 38 -194 119 2 91 53 124 234 150 63 10 129 23 145 30 17 7 34 14
38 14 5 1 7 -44 5 -98z m159 -353 c-3 -7 -5 -2 -5 12 0 14 2 19 5 13 2 -7 2
-19 0 -25z"/>
<path d="M636 1509 c-83 -20 -151 -91 -178 -183 -18 -63 -15 -183 6 -245 68
-198 324 -234 436 -61 47 74 64 237 34 327 -43 125 -169 194 -298 162z"/>
</g>
</svg>
